<svg width="17" height="14" viewBox="0 0 17 14" fill="none" xmlns="http://www.w3.org/2000/svg">
<path d="M14.45 0H2.55C1.8737 0 1.2251 0.26866 0.746878 0.746878C0.26866 1.2251 0 1.8737 0 2.55V11.05C0 11.7263 0.26866 12.3749 0.746878 12.8531C1.2251 13.3313 1.8737 13.6 2.55 13.6H14.45C15.1263 13.6 15.7749 13.3313 16.2531 12.8531C16.7313 12.3749 17 11.7263 17 11.05V2.55C17 1.8737 16.7313 1.2251 16.2531 0.746878C15.7749 0.26866 15.1263 0 14.45 0ZM13.8805 1.7L8.5 5.7375L3.1195 1.7H13.8805ZM14.45 11.9H2.55C2.32457 11.9 2.10837 11.8104 1.94896 11.651C1.78955 11.4916 1.7 11.2754 1.7 11.05V2.7625L7.99 7.48C8.13713 7.59035 8.31609 7.65 8.5 7.65C8.68392 7.65 8.86287 7.59035 9.01 7.48L15.3 2.7625V11.05C15.3 11.2754 15.2104 11.4916 15.051 11.651C14.8916 11.8104 14.6754 11.9 14.45 11.9Z" fill="black"/>
</svg>
