<svg width="17" height="21" viewBox="0 0 17 21" fill="none" xmlns="http://www.w3.org/2000/svg">
<path d="M8.5 11.55C8.17652 11.5463 7.85965 11.6405 7.59203 11.8202C7.32442 11.9998 7.11891 12.2561 7.00316 12.5546C6.88742 12.8532 6.867 13.1796 6.94466 13.4899C7.02231 13.8003 7.19431 14.0797 7.4375 14.2905V15.75C7.4375 16.0285 7.54944 16.2955 7.7487 16.4925C7.94796 16.6894 8.21821 16.8 8.5 16.8C8.78179 16.8 9.05204 16.6894 9.2513 16.4925C9.45056 16.2955 9.5625 16.0285 9.5625 15.75V14.2905C9.80569 14.0797 9.97769 13.8003 10.0553 13.4899C10.133 13.1796 10.1126 12.8532 9.99684 12.5546C9.88109 12.2561 9.67558 11.9998 9.40797 11.8202C9.14035 11.6405 8.82348 11.5463 8.5 11.55ZM13.8125 7.35V5.25C13.8125 3.85761 13.2528 2.52226 12.2565 1.53769C11.2602 0.553123 9.90896 0 8.5 0C7.09104 0 5.73978 0.553123 4.74349 1.53769C3.74721 2.52226 3.1875 3.85761 3.1875 5.25V7.35C2.34212 7.35 1.53137 7.68187 0.933597 8.27261C0.335825 8.86335 0 9.66457 0 10.5V17.85C0 18.6854 0.335825 19.4866 0.933597 20.0774C1.53137 20.6681 2.34212 21 3.1875 21H13.8125C14.6579 21 15.4686 20.6681 16.0664 20.0774C16.6642 19.4866 17 18.6854 17 17.85V10.5C17 9.66457 16.6642 8.86335 16.0664 8.27261C15.4686 7.68187 14.6579 7.35 13.8125 7.35ZM5.3125 5.25C5.3125 4.41457 5.64832 3.61335 6.2461 3.02261C6.84387 2.43187 7.65462 2.1 8.5 2.1C9.34538 2.1 10.1561 2.43187 10.7539 3.02261C11.3517 3.61335 11.6875 4.41457 11.6875 5.25V7.35H5.3125V5.25ZM14.875 17.85C14.875 18.1285 14.7631 18.3955 14.5638 18.5925C14.3645 18.7894 14.0943 18.9 13.8125 18.9H3.1875C2.90571 18.9 2.63546 18.7894 2.4362 18.5925C2.23694 18.3955 2.125 18.1285 2.125 17.85V10.5C2.125 10.2215 2.23694 9.95445 2.4362 9.75754C2.63546 9.56062 2.90571 9.45 3.1875 9.45H13.8125C14.0943 9.45 14.3645 9.56062 14.5638 9.75754C14.7631 9.95445 14.875 10.2215 14.875 10.5V17.85Z" fill="black"/>
</svg>
