<svg width="17" height="20" viewBox="0 0 17 20" fill="none" xmlns="http://www.w3.org/2000/svg">
<path d="M12.0467 5.0465C12.0467 5.23304 12.0333 5.41958 12.0086 5.60399C12.0198 5.5298 12.031 5.45349 12.04 5.3793C11.9862 5.74813 11.883 6.10637 11.7327 6.44976C11.7618 6.38193 11.7932 6.3141 11.8224 6.24627C11.6721 6.58119 11.4792 6.89491 11.2436 7.18319L11.385 7.01149C11.1516 7.29553 10.8802 7.55202 10.5796 7.77247L10.7613 7.63893C10.4562 7.85938 10.1242 8.0438 9.76972 8.18582C9.84151 8.15826 9.9133 8.12859 9.98509 8.10103C9.62166 8.24305 9.24253 8.34056 8.85218 8.39143C8.9307 8.38083 9.01146 8.37023 9.08998 8.36176C8.69739 8.41051 8.30256 8.41051 7.90996 8.36176C7.98848 8.37235 8.06924 8.38295 8.14776 8.39143C7.75741 8.34056 7.37828 8.24305 7.01486 8.10103C7.08665 8.12859 7.15843 8.15826 7.23022 8.18582C6.87577 8.0438 6.54375 7.8615 6.23865 7.63893L6.42036 7.77247C6.11975 7.55202 5.8483 7.29553 5.61499 7.01149L5.75632 7.18319C5.52301 6.89491 5.32784 6.58119 5.17753 6.24627C5.2067 6.3141 5.2381 6.38193 5.26727 6.44976C5.11696 6.10637 5.01377 5.74813 4.95993 5.3793C4.97114 5.45349 4.98236 5.5298 4.99133 5.60399C4.93974 5.23304 4.93974 4.85997 4.99133 4.48902C4.98012 4.56321 4.9689 4.63952 4.95993 4.71371C5.01377 4.34487 5.11696 3.98664 5.26727 3.64324C5.2381 3.71108 5.2067 3.77891 5.17753 3.84674C5.32784 3.51182 5.52077 3.1981 5.75632 2.90982L5.61499 3.08152C5.8483 2.79747 6.11975 2.54099 6.42036 2.32053L6.23865 2.45408C6.54375 2.23363 6.87577 2.04921 7.23022 1.90719C7.15843 1.93474 7.08665 1.96442 7.01486 1.99198C7.37828 1.84995 7.75741 1.75245 8.14776 1.70157C8.06924 1.71217 7.98848 1.72277 7.90996 1.73125C8.30256 1.6825 8.69739 1.6825 9.08998 1.73125C9.01146 1.72065 8.9307 1.71005 8.85218 1.70157C9.24253 1.75245 9.62166 1.84995 9.98509 1.99198C9.9133 1.96442 9.84151 1.93474 9.76972 1.90719C10.1242 2.04921 10.4562 2.23151 10.7613 2.45408L10.5796 2.32053C10.8802 2.54099 11.1516 2.79747 11.385 3.08152L11.2436 2.90982C11.4769 3.1981 11.6721 3.51182 11.8224 3.84674C11.7932 3.77891 11.7618 3.71108 11.7327 3.64324C11.883 3.98664 11.9862 4.34487 12.04 4.71371C12.0288 4.63952 12.0176 4.56321 12.0086 4.48902C12.0333 4.67343 12.0445 4.85997 12.0467 5.0465C12.049 5.48953 12.4573 5.91559 12.9441 5.89439C13.4287 5.8732 13.8437 5.52132 13.8414 5.0465C13.837 4.03115 13.5139 2.99249 12.8813 2.16579C12.7108 1.94322 12.5291 1.72489 12.3272 1.52776C12.123 1.3285 11.8987 1.1568 11.6654 0.989345C11.2414 0.684105 10.768 0.459413 10.2655 0.285596C8.23974 -0.416034 5.79671 0.209286 4.426 1.78636C4.23756 2.00257 4.05809 2.22727 3.90554 2.46891C3.75299 2.70844 3.63409 2.96281 3.52417 3.22142C3.31778 3.70048 3.21234 4.20921 3.16971 4.7243C3.08671 5.73329 3.36489 6.7868 3.92124 7.65165C4.45741 8.48682 5.26727 9.20329 6.21397 9.60816C6.49215 9.72686 6.77706 9.83709 7.07319 9.91552C7.36707 9.99183 7.66544 10.0342 7.96829 10.0681C8.52016 10.1296 9.08325 10.0872 9.62839 9.98335C11.699 9.58484 13.4332 7.89966 13.754 5.92195C13.8011 5.63367 13.837 5.34539 13.837 5.05286C13.8392 4.60984 13.4219 4.18377 12.9396 4.20497C12.455 4.21981 12.0467 4.57168 12.0467 5.0465ZM15.0237 18.3012H3.51295C3.0037 18.3012 2.49446 18.3054 1.98521 18.3012C1.92913 18.3012 1.87304 18.2969 1.8192 18.2906C1.89772 18.3012 1.97848 18.3118 2.057 18.3202C1.96726 18.3075 1.88202 18.2842 1.79901 18.2524C1.8708 18.28 1.94259 18.3096 2.01437 18.3372C1.92464 18.3012 1.84164 18.2545 1.76312 18.1973L1.94483 18.3308C1.87753 18.2778 1.81471 18.2206 1.76087 18.157L1.90221 18.3287C1.84163 18.2545 1.79452 18.1761 1.75414 18.0913C1.78331 18.1591 1.81471 18.227 1.84388 18.2948C1.81023 18.2164 1.78779 18.1337 1.77209 18.051C1.78331 18.1252 1.79452 18.2015 1.8035 18.2757C1.7676 18.0192 1.79228 17.7479 1.79228 17.4893V16.5821C1.79228 16.3552 1.80574 16.1306 1.83715 15.9059C1.82593 15.9801 1.81471 16.0564 1.80574 16.1306C1.86856 15.696 1.9897 15.2699 2.17141 14.8651C2.14225 14.9329 2.11084 15.0007 2.08168 15.0686C2.25666 14.6828 2.481 14.3203 2.75245 13.9875L2.61111 14.1592C2.88256 13.8307 3.19439 13.5339 3.54436 13.2774L3.36264 13.4109C3.71485 13.1545 4.09847 12.9425 4.50676 12.7771C4.43498 12.8047 4.36319 12.8344 4.2914 12.8619C4.71989 12.6924 5.16856 12.5758 5.6307 12.5164C5.55218 12.527 5.47142 12.5376 5.3929 12.5461C5.72492 12.5058 6.05469 12.5037 6.38896 12.5037H10.4943C10.8645 12.5037 11.2324 12.5016 11.6026 12.5461C11.524 12.5355 11.4433 12.5249 11.3648 12.5164C11.8247 12.5758 12.2756 12.6902 12.7041 12.8619C12.6323 12.8344 12.5605 12.8047 12.4887 12.7771C12.897 12.9425 13.2806 13.1545 13.6328 13.4109L13.4511 13.2774C13.7988 13.5339 14.1129 13.8285 14.3843 14.1592L14.243 13.9875C14.5145 14.3203 14.7388 14.6828 14.9138 15.0686C14.8846 15.0007 14.8532 14.9329 14.824 14.8651C15.0035 15.2699 15.1269 15.6939 15.1897 16.1306C15.1785 16.0564 15.1673 15.9801 15.1583 15.9059C15.2009 16.2259 15.2032 16.5439 15.2032 16.8661V17.9154C15.2032 18.0362 15.2077 18.157 15.192 18.2757C15.2032 18.2015 15.2144 18.1252 15.2234 18.051C15.2099 18.1358 15.1852 18.2164 15.1516 18.2948C15.1807 18.227 15.2121 18.1591 15.2413 18.0913C15.2032 18.1761 15.1538 18.2545 15.0933 18.3287L15.2346 18.157C15.1785 18.2206 15.1179 18.28 15.0506 18.3308L15.2323 18.1973C15.1538 18.2545 15.0708 18.299 14.9811 18.3372C15.0529 18.3096 15.1247 18.28 15.1964 18.2524C15.1134 18.2842 15.0259 18.3054 14.9385 18.3202C15.017 18.3096 15.0977 18.299 15.1763 18.2906C15.1269 18.2969 15.0753 18.299 15.0237 18.3012C14.7926 18.3033 14.5548 18.3944 14.3888 18.5492C14.234 18.6954 14.1151 18.9371 14.1264 19.149C14.1488 19.6027 14.5212 20.0033 15.0237 19.9969C15.8964 19.9842 16.6636 19.4458 16.9194 18.6552C17.0203 18.3414 16.9979 18.0044 16.9979 17.6822C16.9979 16.9445 17.0226 16.2132 16.888 15.4819C16.6905 14.4115 16.1207 13.4046 15.34 12.6139C14.5593 11.8233 13.5094 11.2425 12.399 10.9839C11.7618 10.8355 11.1202 10.8122 10.4697 10.8122H6.48991C5.82363 10.8122 5.16183 10.8418 4.51349 11.0051C3.412 11.2806 2.37556 11.8678 1.61057 12.6648C0.838846 13.4682 0.280246 14.4772 0.098533 15.554C-0.0226092 16.2768 0.00206781 17.0018 0.00206781 17.731C0.00206781 18.0659 -0.0181225 18.4156 0.10975 18.7357C0.27576 19.1469 0.540478 19.4712 0.928582 19.715C1.23144 19.9037 1.61505 19.9948 1.97399 19.9991C2.14898 20.0012 2.32396 19.9991 2.49894 19.9991H15.0259C15.4948 19.9991 15.9457 19.609 15.9233 19.1512C15.9009 18.6891 15.5285 18.3012 15.0237 18.3012Z" fill="black"/>
</svg>
